<svg xmlns="http://www.w3.org/2000/svg" width="40" height="40" viewBox="0 0 40 40" fill="none">
  <path d="M36.6667 12.1667V30.5C36.6667 33.8137 33.9804 36.5 30.6667 36.5H9.33337C6.01967 36.5 3.33337 33.8137 3.33337 30.5V9.16667C3.33337 5.85296 6.01967 3.16667 9.33337 3.16667H27.6667" stroke="#1677FF" stroke-width="3" stroke-linecap="round" stroke-linejoin="round"/>
  <path d="M37.2084 16.6667C29.0834 14.2917 24.3334 17.625 21.25 22.9167C21.1667 22.9167 21.0834 22.9167 21.0834 22.9167C20.3334 22.9167 19.5 22.9167 18.75 22.9167C14.4167 22.9167 12.5 23.75 12.5 23.75C12.5 23.75 10.5834 32.7083 18.75 32.7083C22.5 32.7083 24.5834 30.3333 25.8334 28.1667H18.3334C18.3334 28.1667 16.6667 28.1667 16.25 26.25H26.6667C26.6667 26.25 37.2084 20.8333 37.2084 16.6667Z" fill="#1677FF"/>
</svg> 