<svg xmlns="http://www.w3.org/2000/svg" width="40" height="40" viewBox="0 0 40 40" fill="none">
  <path d="M27.7824 12.3962C27.9535 12.3962 28.1246 12.3962 28.2956 12.3962C28.1246 11.5684 27.8107 10.7405 27.3257 10.0838C25.958 8.25706 23.5654 7.17133 21.0016 7.17133C17.0629 7.17133 13.8104 9.59811 13.1538 12.9097C12.9827 13.5664 12.9827 14.2232 12.9827 14.8799C11.1275 15.3664 9.61444 16.3664 8.58889 17.7232C7.22121 19.5499 7.22121 21.8911 8.24676 23.7178C9.10017 25.2035 10.6132 26.2892 12.4684 26.7757C12.4684 28.0956 12.8104 29.3786 13.4669 30.5491C14.6346 32.8904 17.0271 34.46 19.7628 34.46C21.1731 34.46 22.5981 34.117 23.7659 33.4602C24.1078 33.2891 24.4498 33.1181 24.7918 32.8904C25.1337 33.1181 25.4757 33.2891 25.8177 33.4602C26.9854 34.1465 28.3799 34.4894 29.7902 34.4894C32.5685 34.4894 34.9284 32.9199 36.0961 30.5786C36.7526 29.408 37.0946 28.1251 37.0946 26.8051H36.9236C38.2913 26.3186 39.4164 25.6618 40.27 24.7194C42.4679 22.0927 41.2973 18.2894 38.3339 16.9694C38.2055 16.9129 38.077 16.8564 37.9486 16.7999C37.9486 16.4569 37.9486 16.114 37.9486 15.7711C37.9486 13.8024 36.7526 12.0323 34.7264 11.5459C32.1999 11.0594 29.8426 12.9097 29.8426 15.3975C29.8426 15.3975 29.8426 15.3975 29.8426 15.4264C29.1861 15.2554 28.5295 15.1408 27.8732 15.1408C27.8732 14.2232 27.873 13.3345 27.7824 12.3962ZM23.2102 18.9521C22.6124 18.9521 22.1274 18.4657 22.1274 17.8089C22.1274 17.1522 22.6124 16.6657 23.2102 16.6657C23.808 16.6657 24.293 17.1522 24.293 17.8089C24.2933 18.4657 23.808 18.9521 23.2102 18.9521ZM17.0629 16.6657C17.6607 16.6657 18.1457 17.1522 18.1457 17.8089C18.1457 18.4657 17.6607 18.9521 17.0629 18.9521C16.4651 18.9521 15.9802 18.4657 15.9802 17.8089C15.9802 17.1522 16.4651 16.6657 17.0629 16.6657ZM30.9675 21.5483C30.3697 21.5483 29.8848 21.0618 29.8848 20.405C29.8848 19.7483 30.3697 19.2618 30.9675 19.2618C31.5653 19.2618 32.0503 19.7483 32.0503 20.405C32.0503 21.0618 31.5653 21.5483 30.9675 21.5483ZM36.0103 21.5483C35.4125 21.5483 34.9276 21.0618 34.9276 20.405C34.9276 19.7483 35.4125 19.2618 36.0103 19.2618C36.6081 19.2618 37.0931 19.7483 37.0931 20.405C37.0934 21.0618 36.6081 21.5483 36.0103 21.5483ZM22.0132 30.0343C21.4154 30.0343 20.9304 29.5478 20.9304 28.891C20.9304 28.2343 21.4154 27.7478 22.0132 27.7478C22.611 27.7478 23.096 28.2343 23.096 28.891C23.0962 29.5475 22.611 30.0343 22.0132 30.0343ZM27.0552 30.0343C26.4575 30.0343 25.9725 29.5478 25.9725 28.891C25.9725 28.2343 26.4575 27.7478 27.0552 27.7478C27.653 27.7478 28.138 28.2343 28.138 28.891C28.138 29.5475 27.653 30.0343 27.0552 30.0343Z" fill="#07C160"/>
</svg> 